# xmcd
#
# Track frame offsets:
#	150
#	9750
#	20710
#	31454
#	41120
#	51930
#	62580
#	74468
#	87228
#	97260
#	110676
#	119770
#	133270
#	147858
#	161457
#	176917
#	187905
#	199493
#	209243
#	224004
#	237861
#	247918
#	261512
#	271900
#	284313
#	296510
#	308065
#	319212
#	331456
#
# Disc length: 4555 seconds
# Revision: 0
# Processed by: cddbd v1.5.2PL0 Copyright (c) Steve Scherf et al.
# Submitted via: dBpowerAMP V12.0
#
DISCID=d611c91d
DTITLE=Sam Cooke - The Wonderful World Of Sam Cooke (plus My Kind Of Blues)
DYEAR=1900
DGENRE=Soul
TTITLE0=(What A) Wonderful World
TTITLE1=Desire Me
TTITLE2=Summertime
TTITLE3=Almost In Your Arms
TTITLE4=That's Heaven To Me
TTITLE5=No One (Can Ever Take Your Place)
TTITLE6=With You
TTITLE7=Blue Moon
TTITLE8=Stealing Kisses
TTITLE9=You Were Made For Me
TTITLE10=There, I've Said It Again
TTITLE11=I Thank God
TTITLE12=Don't Get Around Much Anymore
TTITLE13=Little Girl Blue
TTITLE14=Nobody Knows You When You're Down And Out
TTITLE15=Out In The Cold Again
TTITLE16=But Not For Me
TTITLE17=Exactly Like You
TTITLE18=I'm Just A Lucky So-And-So
TTITLE19=Since I Met You Baby
TTITLE20=Baby, Won't You Please Come Home
TTITLE21=Trouble In Mind
TTITLE22=You're Always On My Mind
TTITLE23=You Send Me (Bonus Track)
TTITLE24=Chain Gang (Bonus Track)
TTITLE25=Win Your Love For Me (Bonus Track)
TTITLE26=Steal Away (Bonus Track)
TTITLE27=Every Body Loves To Cha Cha Cha (Bonus Track)
TTITLE28=Love You Most Of All (Bonus Track)
EXTD=
EXTT0=
EXTT1=
EXTT2=
EXTT3=
EXTT4=
EXTT5=
EXTT6=
EXTT7=
EXTT8=
EXTT9=
EXTT10=
EXTT11=
EXTT12=
EXTT13=
EXTT14=
EXTT15=
EXTT16=
EXTT17=
EXTT18=
EXTT19=
EXTT20=
EXTT21=
EXTT22=
EXTT23=
EXTT24=
EXTT25=
EXTT26=
EXTT27=
EXTT28=
PLAYORDER=
